<mxfile host="app.diagrams.net" agent="Mozilla/5.0 (Windows NT 10.0; Win64; x64) AppleWebKit/537.36 (KHTML, like Gecko) Chrome/138.0.0.0 Safari/537.36" version="27.2.0" pages="3">
  <diagram name="Page-1" id="5f0bae14-7c28-e335-631c-24af17079c00">
    <mxGraphModel dx="1426" dy="785" grid="1" gridSize="10" guides="1" tooltips="1" connect="1" arrows="1" fold="1" page="1" pageScale="1" pageWidth="1100" pageHeight="850" background="none" math="0" shadow="0">
      <root>
        <mxCell id="0" />
        <mxCell id="1" parent="0" />
        <mxCell id="VlFVYFAtgefIfArWSq8J-1" value="" style="whiteSpace=wrap;html=1;" parent="1" vertex="1">
          <mxGeometry x="282.5" y="30" width="565" height="540" as="geometry" />
        </mxCell>
        <mxCell id="VlFVYFAtgefIfArWSq8J-2" value="Profesor&lt;div&gt;&lt;br&gt;&lt;/div&gt;" style="shape=umlActor;verticalLabelPosition=bottom;verticalAlign=top;html=1;outlineConnect=0;" parent="1" vertex="1">
          <mxGeometry x="180" y="181" width="30" height="60" as="geometry" />
        </mxCell>
        <mxCell id="VlFVYFAtgefIfArWSq8J-3" value="Jefe de 치rea" style="shape=umlActor;verticalLabelPosition=bottom;verticalAlign=top;html=1;outlineConnect=0;" parent="1" vertex="1">
          <mxGeometry x="180" y="381" width="30" height="60" as="geometry" />
        </mxCell>
        <mxCell id="VlFVYFAtgefIfArWSq8J-5" value="Administrar Clases&lt;div&gt;3&lt;/div&gt;" style="ellipse;whiteSpace=wrap;html=1;" parent="1" vertex="1">
          <mxGeometry x="430" y="161" width="130" height="80" as="geometry" />
        </mxCell>
        <mxCell id="VlFVYFAtgefIfArWSq8J-6" value="Acceder al sistema" style="ellipse;whiteSpace=wrap;html=1;" parent="1" vertex="1">
          <mxGeometry x="430" y="271" width="130" height="80" as="geometry" />
        </mxCell>
        <mxCell id="VlFVYFAtgefIfArWSq8J-7" value="Consultar&amp;nbsp;&lt;div&gt;i&lt;span style=&quot;background-color: initial;&quot;&gt;nformaci칩n de clases&lt;/span&gt;&lt;div&gt;&lt;div&gt;4&lt;/div&gt;&lt;/div&gt;&lt;/div&gt;" style="ellipse;whiteSpace=wrap;html=1;" parent="1" vertex="1">
          <mxGeometry x="430" y="371" width="130" height="80" as="geometry" />
        </mxCell>
        <mxCell id="VlFVYFAtgefIfArWSq8J-8" value="Ver perfil del profesor&lt;div&gt;6&lt;/div&gt;" style="ellipse;whiteSpace=wrap;html=1;" parent="1" vertex="1">
          <mxGeometry x="430" y="471" width="130" height="79" as="geometry" />
        </mxCell>
        <mxCell id="VlFVYFAtgefIfArWSq8J-10" value="Iniciar sesi칩n&lt;div&gt;1&lt;/div&gt;" style="ellipse;whiteSpace=wrap;html=1;" parent="1" vertex="1">
          <mxGeometry x="700" y="191" width="120" height="80" as="geometry" />
        </mxCell>
        <mxCell id="VlFVYFAtgefIfArWSq8J-12" value="Filtrar por diferentes criterios&lt;div&gt;5 y 7&lt;/div&gt;" style="ellipse;whiteSpace=wrap;html=1;" parent="1" vertex="1">
          <mxGeometry x="700" y="421" width="130" height="80" as="geometry" />
        </mxCell>
        <mxCell id="VlFVYFAtgefIfArWSq8J-13" value="Registrarse&lt;div&gt;2&lt;/div&gt;" style="ellipse;whiteSpace=wrap;html=1;" parent="1" vertex="1">
          <mxGeometry x="700" y="301" width="120" height="80" as="geometry" />
        </mxCell>
        <mxCell id="VlFVYFAtgefIfArWSq8J-14" value="" style="endArrow=none;html=1;rounded=0;entryX=0;entryY=0.5;entryDx=0;entryDy=0;" parent="1" target="VlFVYFAtgefIfArWSq8J-6" edge="1">
          <mxGeometry width="50" height="50" relative="1" as="geometry">
            <mxPoint x="220" y="221" as="sourcePoint" />
            <mxPoint x="600" y="311" as="targetPoint" />
          </mxGeometry>
        </mxCell>
        <mxCell id="VlFVYFAtgefIfArWSq8J-16" value="" style="endArrow=none;html=1;rounded=0;entryX=0;entryY=0.5;entryDx=0;entryDy=0;" parent="1" target="VlFVYFAtgefIfArWSq8J-5" edge="1">
          <mxGeometry width="50" height="50" relative="1" as="geometry">
            <mxPoint x="220" y="221" as="sourcePoint" />
            <mxPoint x="600" y="311" as="targetPoint" />
          </mxGeometry>
        </mxCell>
        <mxCell id="VlFVYFAtgefIfArWSq8J-19" value="" style="endArrow=none;html=1;rounded=0;entryX=0;entryY=0.5;entryDx=0;entryDy=0;" parent="1" target="VlFVYFAtgefIfArWSq8J-7" edge="1">
          <mxGeometry width="50" height="50" relative="1" as="geometry">
            <mxPoint x="220" y="221" as="sourcePoint" />
            <mxPoint x="600" y="271" as="targetPoint" />
          </mxGeometry>
        </mxCell>
        <mxCell id="VlFVYFAtgefIfArWSq8J-20" value="" style="endArrow=none;html=1;rounded=0;entryX=0;entryY=0.5;entryDx=0;entryDy=0;" parent="1" target="VlFVYFAtgefIfArWSq8J-7" edge="1">
          <mxGeometry width="50" height="50" relative="1" as="geometry">
            <mxPoint x="220" y="411" as="sourcePoint" />
            <mxPoint x="600" y="271" as="targetPoint" />
          </mxGeometry>
        </mxCell>
        <mxCell id="VlFVYFAtgefIfArWSq8J-21" value="" style="endArrow=none;html=1;rounded=0;entryX=0;entryY=0.5;entryDx=0;entryDy=0;" parent="1" target="VlFVYFAtgefIfArWSq8J-8" edge="1">
          <mxGeometry width="50" height="50" relative="1" as="geometry">
            <mxPoint x="220" y="421" as="sourcePoint" />
            <mxPoint x="600" y="271" as="targetPoint" />
          </mxGeometry>
        </mxCell>
        <mxCell id="VlFVYFAtgefIfArWSq8J-22" value="" style="endArrow=none;html=1;rounded=0;entryX=0;entryY=0.5;entryDx=0;entryDy=0;" parent="1" target="VlFVYFAtgefIfArWSq8J-6" edge="1">
          <mxGeometry width="50" height="50" relative="1" as="geometry">
            <mxPoint x="220" y="401" as="sourcePoint" />
            <mxPoint x="600" y="271" as="targetPoint" />
          </mxGeometry>
        </mxCell>
        <mxCell id="VlFVYFAtgefIfArWSq8J-24" value="&amp;lt;&amp;lt;extends&amp;gt;&amp;gt;" style="html=1;verticalAlign=bottom;endArrow=open;dashed=1;endSize=8;curved=0;rounded=0;exitX=0;exitY=0.5;exitDx=0;exitDy=0;" parent="1" source="VlFVYFAtgefIfArWSq8J-12" target="VlFVYFAtgefIfArWSq8J-7" edge="1">
          <mxGeometry relative="1" as="geometry">
            <mxPoint x="610" y="291" as="sourcePoint" />
            <mxPoint x="530" y="291" as="targetPoint" />
          </mxGeometry>
        </mxCell>
        <mxCell id="VlFVYFAtgefIfArWSq8J-25" value="&amp;lt;&amp;lt;extends&amp;gt;&amp;gt;" style="html=1;verticalAlign=bottom;endArrow=open;dashed=1;endSize=8;curved=0;rounded=0;entryX=1;entryY=0.5;entryDx=0;entryDy=0;exitX=0;exitY=0.5;exitDx=0;exitDy=0;" parent="1" source="VlFVYFAtgefIfArWSq8J-12" target="VlFVYFAtgefIfArWSq8J-8" edge="1">
          <mxGeometry relative="1" as="geometry">
            <mxPoint x="680" y="421" as="sourcePoint" />
            <mxPoint x="570" y="424" as="targetPoint" />
          </mxGeometry>
        </mxCell>
        <mxCell id="VlFVYFAtgefIfArWSq8J-26" value="&amp;lt;&amp;lt;include&amp;gt;&amp;gt;" style="endArrow=open;endSize=12;dashed=1;html=1;rounded=0;exitX=1;exitY=0.5;exitDx=0;exitDy=0;entryX=0;entryY=0.5;entryDx=0;entryDy=0;" parent="1" source="VlFVYFAtgefIfArWSq8J-6" target="VlFVYFAtgefIfArWSq8J-10" edge="1">
          <mxGeometry width="160" relative="1" as="geometry">
            <mxPoint x="490" y="291" as="sourcePoint" />
            <mxPoint x="650" y="291" as="targetPoint" />
          </mxGeometry>
        </mxCell>
        <mxCell id="VlFVYFAtgefIfArWSq8J-27" value="&amp;lt;&amp;lt;extends&amp;gt;&amp;gt;" style="html=1;verticalAlign=bottom;endArrow=open;dashed=1;endSize=8;curved=0;rounded=0;exitX=0;exitY=0.5;exitDx=0;exitDy=0;entryX=1;entryY=0.5;entryDx=0;entryDy=0;" parent="1" source="VlFVYFAtgefIfArWSq8J-13" target="VlFVYFAtgefIfArWSq8J-6" edge="1">
          <mxGeometry relative="1" as="geometry">
            <mxPoint x="690" y="431" as="sourcePoint" />
            <mxPoint x="560" y="131" as="targetPoint" />
          </mxGeometry>
        </mxCell>
        <mxCell id="VlFVYFAtgefIfArWSq8J-28" value="SAE" style="text;html=1;align=center;verticalAlign=middle;whiteSpace=wrap;rounded=0;" parent="1" vertex="1">
          <mxGeometry x="465" width="60" height="30" as="geometry" />
        </mxCell>
        <mxCell id="oE6HlCZ7qDH-CvLmyeOS-1" value="&lt;div&gt;SuperAdmin&lt;/div&gt;" style="shape=umlActor;verticalLabelPosition=bottom;verticalAlign=top;html=1;outlineConnect=0;" vertex="1" parent="1">
          <mxGeometry x="180" y="50" width="30" height="60" as="geometry" />
        </mxCell>
        <mxCell id="oE6HlCZ7qDH-CvLmyeOS-5" value="&lt;div&gt;&lt;br&gt;&lt;/div&gt;Gesti칩n sistema&lt;br&gt;&lt;div&gt;8&lt;/div&gt;" style="ellipse;whiteSpace=wrap;html=1;" vertex="1" parent="1">
          <mxGeometry x="430" y="40" width="130" height="80" as="geometry" />
        </mxCell>
        <mxCell id="oE6HlCZ7qDH-CvLmyeOS-6" value="" style="endArrow=none;html=1;rounded=0;entryX=0;entryY=0.5;entryDx=0;entryDy=0;" edge="1" parent="1" target="oE6HlCZ7qDH-CvLmyeOS-5">
          <mxGeometry width="50" height="50" relative="1" as="geometry">
            <mxPoint x="220" y="80" as="sourcePoint" />
            <mxPoint x="530" y="60" as="targetPoint" />
          </mxGeometry>
        </mxCell>
        <mxCell id="oE6HlCZ7qDH-CvLmyeOS-7" value="" style="endArrow=none;html=1;rounded=0;entryX=0;entryY=0;entryDx=0;entryDy=0;" edge="1" parent="1" target="VlFVYFAtgefIfArWSq8J-6">
          <mxGeometry width="50" height="50" relative="1" as="geometry">
            <mxPoint x="220" y="90" as="sourcePoint" />
            <mxPoint x="520" y="120" as="targetPoint" />
          </mxGeometry>
        </mxCell>
      </root>
    </mxGraphModel>
  </diagram>
  <diagram name="Consultar perfil de profesor" id="fYUWoig5p-H-awXGTyvt">
    <mxGraphModel dx="1304" dy="744" grid="1" gridSize="10" guides="1" tooltips="1" connect="1" arrows="1" fold="1" page="1" pageScale="1" pageWidth="827" pageHeight="1169" math="0" shadow="0">
      <root>
        <mxCell id="0" />
        <mxCell id="1" parent="0" />
        <mxCell id="JDWKEVbigAQIcctzPZba-5" value="" style="rounded=0;whiteSpace=wrap;html=1;" vertex="1" parent="1">
          <mxGeometry x="260" y="350" width="640" height="430" as="geometry" />
        </mxCell>
        <mxCell id="2u_kejNQmcYjoHIHSHl--4" value="Jede de 치rea" style="shape=umlActor;verticalLabelPosition=bottom;verticalAlign=top;html=1;outlineConnect=0;" parent="1" vertex="1">
          <mxGeometry x="170" y="510" width="30" height="60" as="geometry" />
        </mxCell>
        <mxCell id="YrfSEVt-PsMpax3U0DWy-1" value="Seleccionar&amp;nbsp;&lt;div&gt;Profesor&lt;/div&gt;" style="ellipse;whiteSpace=wrap;html=1;" vertex="1" parent="1">
          <mxGeometry x="530" y="510" width="120" height="80" as="geometry" />
        </mxCell>
        <mxCell id="YrfSEVt-PsMpax3U0DWy-2" value="Acceder al men칰&amp;nbsp;&lt;div&gt;de profesores&lt;/div&gt;" style="ellipse;whiteSpace=wrap;html=1;" vertex="1" parent="1">
          <mxGeometry x="320" y="510" width="120" height="80" as="geometry" />
        </mxCell>
        <mxCell id="YrfSEVt-PsMpax3U0DWy-4" value="Ver Perfil&amp;nbsp;&lt;div&gt;del Profesor&lt;/div&gt;" style="ellipse;whiteSpace=wrap;html=1;" vertex="1" parent="1">
          <mxGeometry x="740" y="510" width="120" height="80" as="geometry" />
        </mxCell>
        <mxCell id="JDWKEVbigAQIcctzPZba-1" value="Eliminar Profesor" style="ellipse;whiteSpace=wrap;html=1;" vertex="1" parent="1">
          <mxGeometry x="740" y="660" width="120" height="80" as="geometry" />
        </mxCell>
        <mxCell id="JDWKEVbigAQIcctzPZba-2" value="&amp;lt;&amp;lt;extend&amp;gt;&amp;gt;" style="html=1;verticalAlign=bottom;labelBackgroundColor=none;endArrow=open;endFill=0;dashed=1;rounded=0;exitX=0.5;exitY=0;exitDx=0;exitDy=0;entryX=0.5;entryY=1;entryDx=0;entryDy=0;" edge="1" parent="1" source="JDWKEVbigAQIcctzPZba-1" target="YrfSEVt-PsMpax3U0DWy-4">
          <mxGeometry width="160" relative="1" as="geometry">
            <mxPoint x="260" y="640" as="sourcePoint" />
            <mxPoint x="360" y="730" as="targetPoint" />
          </mxGeometry>
        </mxCell>
        <mxCell id="JDWKEVbigAQIcctzPZba-6" value="" style="endArrow=none;html=1;rounded=0;entryX=0;entryY=0.5;entryDx=0;entryDy=0;" edge="1" parent="1" target="YrfSEVt-PsMpax3U0DWy-2">
          <mxGeometry width="50" height="50" relative="1" as="geometry">
            <mxPoint x="210" y="550" as="sourcePoint" />
            <mxPoint x="550" y="570" as="targetPoint" />
          </mxGeometry>
        </mxCell>
        <mxCell id="JDWKEVbigAQIcctzPZba-8" value="&amp;lt;&amp;lt;extend&amp;gt;&amp;gt;" style="html=1;verticalAlign=bottom;labelBackgroundColor=none;endArrow=open;endFill=0;dashed=1;rounded=0;exitX=0;exitY=0.5;exitDx=0;exitDy=0;entryX=1;entryY=0.5;entryDx=0;entryDy=0;" edge="1" parent="1" source="YrfSEVt-PsMpax3U0DWy-1" target="YrfSEVt-PsMpax3U0DWy-2">
          <mxGeometry width="160" relative="1" as="geometry">
            <mxPoint x="820" y="680" as="sourcePoint" />
            <mxPoint x="820" y="610" as="targetPoint" />
          </mxGeometry>
        </mxCell>
        <mxCell id="DeSKDXIqaLilFEfRsRjt-1" value="Filtrar lista de profesores" style="ellipse;whiteSpace=wrap;html=1;" vertex="1" parent="1">
          <mxGeometry x="530" y="380" width="120" height="80" as="geometry" />
        </mxCell>
        <mxCell id="DeSKDXIqaLilFEfRsRjt-2" value="&amp;lt;&amp;lt;extend&amp;gt;&amp;gt;" style="html=1;verticalAlign=bottom;labelBackgroundColor=none;endArrow=open;endFill=0;dashed=1;rounded=0;exitX=0;exitY=1;exitDx=0;exitDy=0;entryX=1;entryY=0;entryDx=0;entryDy=0;" edge="1" parent="1" source="DeSKDXIqaLilFEfRsRjt-1" target="YrfSEVt-PsMpax3U0DWy-2">
          <mxGeometry width="160" relative="1" as="geometry">
            <mxPoint x="540" y="560" as="sourcePoint" />
            <mxPoint x="450" y="560" as="targetPoint" />
          </mxGeometry>
        </mxCell>
        <mxCell id="DeSKDXIqaLilFEfRsRjt-3" value="&amp;lt;&amp;lt;include&amp;gt;&amp;gt;" style="endArrow=open;endSize=12;dashed=1;html=1;rounded=0;exitX=1;exitY=0.5;exitDx=0;exitDy=0;entryX=0;entryY=0.5;entryDx=0;entryDy=0;" edge="1" parent="1" source="YrfSEVt-PsMpax3U0DWy-1" target="YrfSEVt-PsMpax3U0DWy-4">
          <mxGeometry width="160" relative="1" as="geometry">
            <mxPoint x="361" y="345" as="sourcePoint" />
            <mxPoint x="510" y="325" as="targetPoint" />
          </mxGeometry>
        </mxCell>
      </root>
    </mxGraphModel>
  </diagram>
  <diagram name="Caso de uso - Eliminar usuario" id="r01dRQSqruM3-_Fl9Tzo">
    <mxGraphModel dx="858" dy="828" grid="1" gridSize="10" guides="1" tooltips="1" connect="1" arrows="1" fold="1" page="1" pageScale="1" pageWidth="827" pageHeight="1169" math="0" shadow="0">
      <root>
        <mxCell id="0" />
        <mxCell id="1" parent="0" />
        <mxCell id="KWhHhxgF_X2CVYcM56N6-1" value="Eliminar usuario" style="swimlane;whiteSpace=wrap;html=1;" parent="1" vertex="1">
          <mxGeometry x="351" y="305" width="949" height="560" as="geometry" />
        </mxCell>
        <mxCell id="KWhHhxgF_X2CVYcM56N6-2" value="Acceder al men칰 de usuarios" style="ellipse;whiteSpace=wrap;html=1;" parent="KWhHhxgF_X2CVYcM56N6-1" vertex="1">
          <mxGeometry x="59" y="240" width="120" height="80" as="geometry" />
        </mxCell>
        <mxCell id="KWhHhxgF_X2CVYcM56N6-3" value="Gestionar usuario" style="ellipse;whiteSpace=wrap;html=1;" parent="KWhHhxgF_X2CVYcM56N6-1" vertex="1">
          <mxGeometry x="299" y="240" width="120" height="80" as="geometry" />
        </mxCell>
        <mxCell id="KWhHhxgF_X2CVYcM56N6-4" value="Consultar" style="ellipse;whiteSpace=wrap;html=1;" parent="KWhHhxgF_X2CVYcM56N6-1" vertex="1">
          <mxGeometry x="785" y="240" width="120" height="80" as="geometry" />
        </mxCell>
        <mxCell id="KWhHhxgF_X2CVYcM56N6-5" value="Eliminar usuario" style="ellipse;whiteSpace=wrap;html=1;" parent="KWhHhxgF_X2CVYcM56N6-1" vertex="1">
          <mxGeometry x="529" y="240" width="120" height="80" as="geometry" />
        </mxCell>
        <mxCell id="KWhHhxgF_X2CVYcM56N6-6" value="&amp;lt;&amp;lt;include&amp;gt;&amp;gt;" style="html=1;verticalAlign=bottom;labelBackgroundColor=none;endArrow=open;endFill=0;dashed=1;rounded=0;entryX=0;entryY=0.5;entryDx=0;entryDy=0;exitX=1;exitY=0.5;exitDx=0;exitDy=0;" parent="KWhHhxgF_X2CVYcM56N6-1" source="KWhHhxgF_X2CVYcM56N6-2" target="KWhHhxgF_X2CVYcM56N6-3" edge="1">
          <mxGeometry width="160" relative="1" as="geometry">
            <mxPoint x="319" y="190" as="sourcePoint" />
            <mxPoint x="479" y="190" as="targetPoint" />
          </mxGeometry>
        </mxCell>
        <mxCell id="KWhHhxgF_X2CVYcM56N6-7" value="&amp;lt;&amp;lt;include&amp;gt;&amp;gt;" style="html=1;verticalAlign=bottom;labelBackgroundColor=none;endArrow=open;endFill=0;dashed=1;rounded=0;entryX=1;entryY=0.5;entryDx=0;entryDy=0;exitX=0;exitY=0.5;exitDx=0;exitDy=0;" parent="KWhHhxgF_X2CVYcM56N6-1" source="KWhHhxgF_X2CVYcM56N6-4" target="KWhHhxgF_X2CVYcM56N6-5" edge="1">
          <mxGeometry width="160" relative="1" as="geometry">
            <mxPoint x="199" y="300" as="sourcePoint" />
            <mxPoint x="299" y="300" as="targetPoint" />
          </mxGeometry>
        </mxCell>
        <mxCell id="KWhHhxgF_X2CVYcM56N6-8" value="&amp;lt;&amp;lt;extend&amp;gt;&amp;gt;" style="html=1;verticalAlign=bottom;labelBackgroundColor=none;endArrow=open;endFill=0;dashed=1;rounded=0;exitX=0;exitY=0.5;exitDx=0;exitDy=0;entryX=1;entryY=0.5;entryDx=0;entryDy=0;" parent="KWhHhxgF_X2CVYcM56N6-1" source="KWhHhxgF_X2CVYcM56N6-5" target="KWhHhxgF_X2CVYcM56N6-3" edge="1">
          <mxGeometry width="160" relative="1" as="geometry">
            <mxPoint x="319" y="190" as="sourcePoint" />
            <mxPoint x="419" y="370" as="targetPoint" />
          </mxGeometry>
        </mxCell>
        <mxCell id="KWhHhxgF_X2CVYcM56N6-9" value="Administrador" style="shape=umlActor;verticalLabelPosition=bottom;verticalAlign=top;html=1;outlineConnect=0;" parent="1" vertex="1">
          <mxGeometry x="230" y="555" width="30" height="60" as="geometry" />
        </mxCell>
        <mxCell id="KWhHhxgF_X2CVYcM56N6-10" value="" style="endArrow=classic;html=1;rounded=0;entryX=0;entryY=0.5;entryDx=0;entryDy=0;" parent="1" source="KWhHhxgF_X2CVYcM56N6-9" target="KWhHhxgF_X2CVYcM56N6-2" edge="1">
          <mxGeometry width="50" height="50" relative="1" as="geometry">
            <mxPoint x="720" y="515" as="sourcePoint" />
            <mxPoint x="770" y="465" as="targetPoint" />
          </mxGeometry>
        </mxCell>
        <mxCell id="KWhHhxgF_X2CVYcM56N6-11" value="Gestor de &lt;br&gt;base de datos" style="shape=umlActor;verticalLabelPosition=bottom;verticalAlign=top;html=1;outlineConnect=0;" parent="1" vertex="1">
          <mxGeometry x="1360" y="555" width="30" height="60" as="geometry" />
        </mxCell>
        <mxCell id="KWhHhxgF_X2CVYcM56N6-12" value="" style="endArrow=classic;html=1;rounded=0;entryX=1;entryY=0.5;entryDx=0;entryDy=0;" parent="1" source="KWhHhxgF_X2CVYcM56N6-11" target="KWhHhxgF_X2CVYcM56N6-4" edge="1">
          <mxGeometry width="50" height="50" relative="1" as="geometry">
            <mxPoint x="806" y="605" as="sourcePoint" />
            <mxPoint x="856" y="555" as="targetPoint" />
          </mxGeometry>
        </mxCell>
      </root>
    </mxGraphModel>
  </diagram>
</mxfile>
